<svg id="Layer_1" data-name="Layer 1" xmlns="http://www.w3.org/2000/svg" width="36.9" height="36.9" viewBox="0 0 36.9 36.9"><defs><style>.cls-1{fill:#f04b23;}.cls-2{fill:#fff;}</style></defs><title>icon_2</title><circle class="cls-1" cx="18.4" cy="18.4" r="18.4"/><path class="cls-2" d="M16.1,16.2c2.6-.1,4.4-1.2,4.4-2.5s-1.1-2.2-2.8-2.2a4.72,4.72,0,0,0-3.5,1.7l-2.4-2.4a8.6,8.6,0,0,1,6.6-3c3.7,0,6.3,2.3,6.3,5.5,0,2.5-2.1,4.8-5,5.5v2H16V16.2Zm-.8,9a2.63,2.63,0,0,1,2.6-2.5,2.55,2.55,0,0,1,0,5.1A2.65,2.65,0,0,1,15.3,25.2Z"/></svg>